<?xml version="1.0" encoding="utf-8"?>
<!-- Generator: Adobe Illustrator 25.2.1, SVG Export Plug-In . SVG Version: 6.00 Build 0)  -->
<svg version="1.1" id="레이어_1" xmlns="http://www.w3.org/2000/svg" xmlns:xlink="http://www.w3.org/1999/xlink" x="0px"
	 y="0px" viewBox="0 0 300 300" style="enable-background:new 0 0 300 300;" xml:space="preserve">
<style type="text/css">
	.st0{fill:#171314;}
</style>
<rect x="148.72" y="10.87" class="st0" width="13.99" height="110.76"/>
<rect x="207.6" y="36.5" transform="matrix(0.6993 0.7148 -0.7148 0.6993 130.215 -125.7695)" class="st0" width="13.99" height="110.76"/>
<rect x="148.72" y="177.09" class="st0" width="13.99" height="110.76"/>
<rect x="65.62" y="94.1" transform="matrix(6.123234e-17 -1 1 6.123234e-17 -76.8635 222.0921)" class="st0" width="13.99" height="110.76"/>
<rect x="231.83" y="94.1" transform="matrix(6.123234e-17 -1 1 6.123234e-17 89.3481 388.3037)" class="st0" width="13.99" height="110.76"/>
<rect x="88.78" y="152.73" transform="matrix(0.6993 0.7148 -0.7148 0.6993 177.5712 -5.8836)" class="st0" width="13.99" height="110.76"/>
<rect x="205.38" y="155.42" transform="matrix(-0.7316 0.6817 -0.6817 -0.7316 511.4549 220.2686)" class="st0" width="13.99" height="110.76"/>
<rect x="92.07" y="33.81" transform="matrix(-0.7316 0.6817 -0.6817 -0.7316 232.3548 86.9226)" class="st0" width="13.99" height="110.76"/>
</svg>
